<?xml version="1.0" ?><!DOCTYPE svg  PUBLIC '-//W3C//DTD SVG 1.1//EN'  'http://www.w3.org/Graphics/SVG/1.1/DTD/svg11.dtd'><svg enable-background="new 0 0 90 90" height="90px" id="Layer_1" version="1.1" viewBox="0 0 90 90" width="90px" xml:space="preserve" xmlns="http://www.w3.org/2000/svg" xmlns:xlink="http://www.w3.org/1999/xlink"><circle cx="45" cy="45" fill="#36D7B7" r="45"/><path d="M70.296,53h-5.177H59l4.287,4.287c-3.289,5.84-9.283,9.942-16.287,10.607V43h4c1.105,0,2-0.896,2-2  c0-1.105-0.895-2-2-2h-4v-4.201c4.564-0.927,8-4.961,8-9.799c0-5.523-4.477-10-10-10c-5.523,0-10,4.477-10,10  c0,4.838,3.436,8.873,8,9.799V39h-4c-1.105,0-2,0.895-2,2c0,1.104,0.895,2,2,2h4v24.894c-7.005-0.664-12.998-4.767-16.287-10.607  L31,53h-6.119h-5.177H19v12l4.059-4.059C27.671,68.19,35.771,73,45,73s17.329-4.81,21.941-12.059L71,65V53H70.296z M41,25  c0-2.209,1.791-4,4-4s4,1.791,4,4s-1.791,4-4,4S41,27.209,41,25z" fill="#ABCFD3"/><path d="M45,74c-8.863,0-17.033-4.272-22.096-11.49l-3.197,3.197c-0.286,0.287-0.717,0.371-1.09,0.217  C18.243,65.769,18,65.404,18,65V53c0-0.552,0.447-1,1-1h12c0.404,0,0.77,0.244,0.924,0.617c0.155,0.374,0.069,0.804-0.217,1.09  l-3.74,3.741c3.088,5.03,8.23,8.439,14.033,9.316V44h-3c-1.654,0-3-1.346-3-3s1.346-3,3-3h3v-2.416C37.318,34.26,34,29.934,34,25  c0-6.065,4.935-11,11-11s11,4.935,11,11c0,4.934-3.318,9.26-8,10.584V38h3c1.654,0,3,1.346,3,3s-1.346,3-3,3h-3v22.764  c5.803-0.877,10.945-4.287,14.033-9.316l-3.74-3.741c-0.286-0.286-0.372-0.716-0.217-1.09C58.23,52.244,58.596,52,59,52h12  c0.553,0,1,0.448,1,1v12c0,0.404-0.243,0.769-0.617,0.924c-0.373,0.155-0.803,0.07-1.09-0.217l-3.197-3.197  C62.033,69.728,53.863,74,45,74z M23.059,59.941c0.036,0,0.072,0.002,0.109,0.006c0.302,0.033,0.571,0.201,0.734,0.458  C28.522,67.665,36.409,72,45,72s16.478-4.335,21.098-11.595c0.163-0.256,0.433-0.424,0.734-0.458  c0.309-0.033,0.603,0.073,0.816,0.287L70,62.586V54h-8.586l2.58,2.581c0.317,0.317,0.385,0.807,0.164,1.198  c-3.536,6.279-9.915,10.433-17.063,11.111c-0.286,0.027-0.56-0.066-0.768-0.256S46,68.176,46,67.894V43c0-0.552,0.447-1,1-1h4  c0.552,0,1-0.449,1-1s-0.448-1-1-1h-4c-0.553,0-1-0.448-1-1v-4.201c0-0.476,0.335-0.885,0.801-0.98C50.973,32.972,54,29.264,54,25  c0-4.962-4.037-9-9-9s-9,4.038-9,9c0,4.264,3.027,7.972,7.199,8.819C43.665,33.914,44,34.323,44,34.799V39c0,0.552-0.447,1-1,1h-4  c-0.552,0-1,0.449-1,1s0.448,1,1,1h4c0.553,0,1,0.448,1,1v24.894c0,0.282-0.119,0.55-0.327,0.74s-0.479,0.282-0.768,0.256  c-7.148-0.678-13.527-4.832-17.063-11.111c-0.221-0.391-0.153-0.88,0.164-1.198L28.586,54H20v8.586l2.352-2.352  C22.54,60.046,22.795,59.941,23.059,59.941z M45,30c-2.757,0-5-2.243-5-5s2.243-5,5-5s5,2.243,5,5S47.757,30,45,30z M45,22  c-1.654,0-3,1.346-3,3s1.346,3,3,3s3-1.346,3-3S46.654,22,45,22z" fill="#232E38"/></svg>