<?xml version="1.0" ?><!DOCTYPE svg  PUBLIC '-//W3C//DTD SVG 1.1//EN'  'http://www.w3.org/Graphics/SVG/1.1/DTD/svg11.dtd'><svg enable-background="new 0 0 90 90" height="90px" id="Layer_1" version="1.1" viewBox="0 0 90 90" width="90px" xml:space="preserve" xmlns="http://www.w3.org/2000/svg" xmlns:xlink="http://www.w3.org/1999/xlink"><circle cx="45" cy="45" fill="#36D7B7" r="45"/><g><path d="M62.111,21.584C57.315,18.073,51.399,16,45,16c-16.016,0-29,12.984-29,29s12.984,29,29,29s29-12.984,29-29   c0-6.367-2.052-12.255-5.531-17.038" fill="#E45544"/><path d="M45,75c-16.542,0-30-13.458-30-30s13.458-30,30-30c6.417,0,12.539,1.998,17.702,5.776   c0.445,0.326,0.542,0.952,0.216,1.398c-0.326,0.445-0.951,0.543-1.398,0.216C56.702,18.864,50.99,17,45,17   c-15.439,0-28,12.561-28,28s12.561,28,28,28s28-12.561,28-28c0-5.959-1.846-11.647-5.339-16.45   c-0.325-0.447-0.226-1.072,0.22-1.397c0.447-0.326,1.072-0.226,1.397,0.22C73.021,32.521,75,38.616,75,45   C75,61.542,61.542,75,45,75z" fill="#3F291E"/></g><g><path d="M57.022,27.779C53.616,25.397,49.471,24,45,24c-11.598,0-21,9.402-21,21s9.402,21,21,21s21-9.402,21-21   c0-4.584-1.469-8.825-3.961-12.278" fill="#EFEAE1"/><path d="M45,67c-12.131,0-22-9.869-22-22s9.869-22,22-22c4.536,0,8.891,1.369,12.595,3.96   c0.453,0.316,0.563,0.94,0.246,1.393c-0.316,0.452-0.938,0.564-1.393,0.246C53.083,26.245,49.124,25,45,25   c-11.028,0-20,8.972-20,20s8.972,20,20,20s20-8.972,20-20c0-4.23-1.304-8.273-3.772-11.692c-0.323-0.448-0.222-1.073,0.226-1.396   c0.45-0.322,1.074-0.221,1.396,0.226C65.565,35.899,67,40.347,67,45C67,57.131,57.131,67,45,67z" fill="#383128"/></g><g><path d="M51.726,33.873C49.764,32.684,47.462,32,45,32c-7.18,0-13,5.82-13,13s5.82,13,13,13c7.18,0,13-5.82,13-13   c0-2.493-0.702-4.821-1.918-6.799" fill="#E45544"/><path d="M45,59c-7.72,0-14-6.28-14-14s6.28-14,14-14c2.561,0,5.066,0.698,7.244,2.018   c0.473,0.286,0.624,0.901,0.337,1.373c-0.286,0.473-0.903,0.625-1.373,0.337C49.342,33.598,47.195,33,45,33   c-6.617,0-12,5.383-12,12s5.383,12,12,12s12-5.383,12-12c0-2.223-0.612-4.393-1.77-6.275c-0.289-0.471-0.142-1.086,0.328-1.376   c0.471-0.289,1.086-0.143,1.376,0.328C58.286,39.875,59,42.407,59,45C59,52.72,52.72,59,45,59z" fill="#3F291E"/></g><g><path d="M46.198,40.144C45.814,40.05,45.413,40,45,40c-2.761,0-5,2.239-5,5c0,2.761,2.239,5,5,5   c2.761,0,5-2.239,5-5c0-0.408-0.049-0.804-0.141-1.183" fill="#EFEAE1"/><path d="M45,51c-3.309,0-6-2.691-6-6s2.691-6,6-6c0.487,0,0.971,0.059,1.438,0.174   c0.536,0.132,0.863,0.674,0.731,1.21s-0.675,0.863-1.21,0.731C45.648,41.039,45.326,41,45,41c-2.206,0-4,1.794-4,4s1.794,4,4,4   s4-1.794,4-4c0-0.32-0.038-0.639-0.113-0.948c-0.13-0.537,0.2-1.078,0.737-1.208c0.532-0.131,1.077,0.2,1.208,0.737   C50.943,44.044,51,44.521,51,45C51,48.309,48.309,51,45,51z" fill="#383128"/></g><g><line fill="#EFEAE1" x1="45" x2="65" y1="45" y2="25"/><path d="M45,46c-0.256,0-0.512-0.098-0.707-0.293c-0.391-0.391-0.391-1.023,0-1.414l20-20   c0.391-0.391,1.023-0.391,1.414,0s0.391,1.023,0,1.414l-20,20C45.512,45.902,45.256,46,45,46z" fill="#383128"/></g><g><path d="M64.757,30H60v-4.757c0-0.796,0.316-1.559,0.879-2.121L68,16v6h6l-7.121,7.121   C66.316,29.684,65.553,30,64.757,30z" fill="#EFEAE1"/><path d="M64.757,31H60c-0.552,0-1-0.448-1-1v-4.757c0-1.068,0.416-2.073,1.172-2.829l7.121-7.121   c0.286-0.287,0.714-0.372,1.09-0.217C68.756,15.231,69,15.596,69,16v5h5c0.404,0,0.769,0.244,0.924,0.617   c0.155,0.374,0.069,0.804-0.217,1.09l-7.121,7.121C66.831,30.584,65.826,31,64.757,31z M61,29h3.757   c0.534,0,1.037-0.208,1.415-0.586L71.586,23H68c-0.552,0-1-0.448-1-1v-3.586l-5.414,5.414C61.208,24.206,61,24.708,61,25.243V29z" fill="#383128"/></g></svg>