<?xml version="1.0" ?><!DOCTYPE svg  PUBLIC '-//W3C//DTD SVG 1.1//EN'  'http://www.w3.org/Graphics/SVG/1.1/DTD/svg11.dtd'><svg enable-background="new 0 0 90 90" height="90px" id="Layer_1" version="1.1" viewBox="0 0 90 90" width="90px" xml:space="preserve" xmlns="http://www.w3.org/2000/svg" xmlns:xlink="http://www.w3.org/1999/xlink"><circle cx="45" cy="45" fill="#F0EFD2" r="45"/><path d="M67,61H21c-1.105,0-2-0.895-2-2V29c0-1.105,0.895-2,2-2h46c1.105,0,2,0.895,2,2v30  C69,60.105,68.105,61,67,61z" fill="#CCD3D6"/><path d="M21,61h46c0.31,0,0.6-0.077,0.862-0.202L50.709,44H36.118L19.487,60.295C19.854,60.723,20.392,61,21,61z" fill="#E8EEEF"/><g><path d="M68.413,27.587L48.155,47.011c-2.322,2.229-5.989,2.229-8.31,0L19.586,27.586" fill="#FFFFFF"/><path d="M44,49.689c-1.744,0-3.488-0.652-4.848-1.957L18.895,28.308c-0.399-0.382-0.412-1.016-0.03-1.414   c0.383-0.397,1.015-0.41,1.414-0.029l20.258,19.425c1.942,1.865,4.984,1.864,6.926,0l20.259-19.424   c0.398-0.381,1.031-0.368,1.414,0.029c0.382,0.399,0.369,1.032-0.03,1.414L48.847,47.732C47.489,49.037,45.744,49.689,44,49.689z" fill="#232E38"/></g><path d="M19.586,61.414c-0.263,0-0.525-0.104-0.722-0.308c-0.382-0.398-0.369-1.032,0.03-1.414l17.118-16.414  c0.398-0.381,1.031-0.368,1.414,0.029c0.382,0.398,0.369,1.032-0.03,1.414L20.278,61.136C20.084,61.321,19.835,61.414,19.586,61.414  z" fill="#232E38"/><path d="M43,62H21c-1.654,0-3-1.346-3-3V29c0-1.654,1.346-3,3-3h46c1.654,0,3,1.346,3,3v16c0,0.553-0.448,1-1,1  s-1-0.447-1-1V29c0-0.552-0.449-1-1-1H21c-0.551,0-1,0.448-1,1v30c0,0.552,0.449,1,1,1h22c0.552,0,1,0.447,1,1S43.552,62,43,62z" fill="#232E38"/><g><path clip-rule="evenodd" d="M61.004,55.474c-3.363-7.419-12.475-3.859-11.985,2.739   C49.54,65.22,59.267,70,61.004,72.668C62.793,70,72.598,65.089,72.988,58.213C73.363,51.607,64.779,48.085,61.004,55.474z" fill="#F27161" fill-rule="evenodd"/><path d="M61.004,73.668c-0.002,0-0.004,0-0.007,0c-0.336-0.002-0.648-0.173-0.831-0.454   c-0.444-0.682-1.755-1.72-3.143-2.818c-3.633-2.876-8.608-6.814-9.001-12.108c-0.156-2.092,0.531-4.075,1.932-5.585   c1.398-1.506,3.343-2.37,5.336-2.37c2.314,0,4.343,1.139,5.753,3.18c1.505-2.033,3.562-3.169,5.827-3.169   c1.894,0,3.751,0.817,5.098,2.242c1.424,1.508,2.142,3.526,2.019,5.685c-0.297,5.235-5.329,9.226-9.002,12.139   c-1.385,1.099-2.694,2.136-3.15,2.816C61.649,73.502,61.337,73.668,61.004,73.668z M55.29,52.332c-1.438,0-2.849,0.631-3.87,1.73   c-1.019,1.098-1.518,2.545-1.404,4.076c0.329,4.419,4.906,8.043,8.249,10.688c1.104,0.874,2.052,1.624,2.745,2.312   c0.693-0.681,1.636-1.429,2.732-2.298c3.377-2.678,8.001-6.345,8.248-10.685c0.091-1.604-0.433-3.094-1.476-4.198   c-0.97-1.026-2.298-1.615-3.644-1.615c-2.027,0-3.794,1.274-4.976,3.587c-0.175,0.342-0.527,0.529-0.914,0.545   c-0.384-0.009-0.729-0.237-0.887-0.587C59.054,53.595,57.348,52.332,55.29,52.332z" fill="#3F291E"/></g></svg>