<?xml version="1.0" ?><!DOCTYPE svg  PUBLIC '-//W3C//DTD SVG 1.1//EN'  'http://www.w3.org/Graphics/SVG/1.1/DTD/svg11.dtd'><svg enable-background="new 0 0 90 90" height="90px" id="Layer_1" version="1.1" viewBox="0 0 90 90" width="90px" xml:space="preserve" xmlns="http://www.w3.org/2000/svg" xmlns:xlink="http://www.w3.org/1999/xlink"><circle cx="45" cy="45" fill="#81D4EF" r="45"/><g><path d="M63.735,31.782c2.133,13.004-8.95,24.087-21.954,21.954c-7.875-1.292-14.226-7.643-15.517-15.517   c-2.133-13.004,8.95-24.087,21.954-21.954C56.093,17.556,62.444,23.907,63.735,31.782z" fill="#FFCC00"/><path d="M45,55c-1.119,0-2.257-0.094-3.38-0.278c-8.266-1.355-14.986-8.076-16.342-16.342   c-0.967-5.888,0.663-11.836,4.472-16.32c4.536-5.34,11.605-7.933,18.63-6.783c8.266,1.355,14.986,8.076,16.342,16.342   c0.966,5.888-0.664,11.837-4.473,16.321C56.438,52.427,50.881,55,45,55z M45,17c-5.293,0-10.296,2.316-13.726,6.355   c-3.428,4.036-4.894,9.394-4.023,14.701c1.22,7.432,7.262,13.474,14.693,14.692c6.342,1.042,12.696-1.293,16.78-6.103   c3.428-4.036,4.895-9.394,4.023-14.702c-1.219-7.432-7.261-13.473-14.692-14.692C47.039,17.084,46.011,17,45,17z" fill="#383128"/></g><g><path d="M50,50.147c-0.412,0-0.798-0.257-0.942-0.667c-0.185-0.521,0.089-1.092,0.609-1.276   c2.205-0.779,4.199-2.118,5.769-3.871c0.369-0.412,1.002-0.445,1.412-0.078c0.411,0.368,0.446,1,0.078,1.412   c-1.792,2.002-4.072,3.531-6.593,4.422C50.223,50.128,50.11,50.147,50,50.147z" fill="#FFFFFF"/><path d="M30.133,34c-0.044,0-0.088-0.003-0.133-0.009c-0.548-0.073-0.933-0.576-0.859-1.124   C30.194,24.962,37.014,19,45.001,19c0.553,0,1,0.448,1,1s-0.447,1-1,1c-6.989,0-12.956,5.216-13.878,12.132   C31.056,33.635,30.627,34,30.133,34z" fill="#FFFFFF"/></g><g><polygon fill="#F1B565" points="52,74 38,74 36,66 54,66  "/><path d="M52,75H38c-0.459,0-0.858-0.313-0.97-0.757l-2-8c-0.075-0.299-0.008-0.615,0.182-0.858S35.692,65,36,65h18   c0.308,0,0.599,0.142,0.788,0.385s0.257,0.559,0.182,0.858l-2,8C52.858,74.688,52.459,75,52,75z M38.781,73h12.438l1.5-6H37.281   L38.781,73z" fill="#383128"/></g><g><line fill="#F1B565" x1="58.958" x2="53" y1="48" y2="66"/><path d="M53,67c-0.104,0-0.21-0.017-0.314-0.051c-0.524-0.173-0.809-0.739-0.635-1.264l5.958-18   c0.173-0.525,0.74-0.808,1.264-0.635c0.524,0.173,0.809,0.739,0.635,1.264l-5.958,18C53.811,66.734,53.42,67,53,67z" fill="#383128"/></g><g><line fill="#F1B565" x1="45" x2="45" y1="54" y2="66"/><path d="M45,67c-0.553,0-1-0.448-1-1V54c0-0.552,0.447-1,1-1s1,0.448,1,1v12C46,66.552,45.553,67,45,67z" fill="#383128"/></g><g><line fill="#F1B565" x1="51.437" x2="49.062" y1="52.875" y2="66"/><path d="M49.063,67c-0.059,0-0.119-0.005-0.179-0.016c-0.544-0.098-0.904-0.619-0.807-1.162l2.375-13.125   c0.099-0.543,0.619-0.909,1.162-0.806c0.544,0.098,0.904,0.619,0.807,1.162l-2.375,13.125C49.959,66.661,49.538,67,49.063,67z" fill="#383128"/></g><g><line fill="#F1B565" x1="30.875" x2="36.895" y1="47.875" y2="66"/><path d="M36.896,67c-0.419,0-0.81-0.266-0.949-0.685L29.926,48.19c-0.174-0.524,0.11-1.09,0.634-1.265   c0.523-0.174,1.09,0.11,1.265,0.634l6.021,18.125c0.174,0.524-0.109,1.09-0.634,1.265C37.106,66.984,37,67,36.896,67z" fill="#383128"/></g><g><line fill="#F1B565" x1="38.458" x2="40.833" y1="52.875" y2="66"/><path d="M40.832,67c-0.475,0-0.896-0.339-0.983-0.822l-2.375-13.125c-0.098-0.543,0.263-1.064,0.807-1.162   c0.541-0.104,1.063,0.263,1.162,0.806l2.375,13.125c0.098,0.543-0.263,1.064-0.807,1.162C40.951,66.995,40.891,67,40.832,67z" fill="#383128"/></g></svg>