<svg xmlns="http://www.w3.org/2000/svg" xmlns:xlink="http://www.w3.org/1999/xlink" height="90px" id="Layer_1" viewBox="0 0 90 90" width="90px" xml:space="preserve"><circle cx="45" cy="45" fill="#DAE3E6" r="45"></circle><path d="M31.722,48.444C22.387,50.604,16,54.966,16,60c0,7.18,12.984,13,29,13c16.016,0,29-5.82,29-13  c0-5.039-6.399-9.404-15.748-11.562" fill="#FFCC00"></path><path d="M45,74c-16.822,0-30-6.149-30-14c0-5.375,6.321-10.176,16.497-12.53c0.544-0.125,1.075,0.211,1.2,0.749  c0.124,0.538-0.211,1.075-0.749,1.2C22.867,51.519,17,55.672,17,60c0,6.505,12.822,12,28,12s28-5.495,28-12  c0-4.333-5.877-8.488-14.973-10.587c-0.538-0.125-0.874-0.661-0.75-1.2c0.125-0.538,0.664-0.872,1.199-0.75  C68.669,49.816,75,54.619,75,60C75,67.851,61.822,74,45,74z" fill="#383128"></path><path d="M39.663,58.609c-0.137,0-0.275-0.028-0.408-0.088l-10.928-4.899c-0.504-0.226-0.729-0.818-0.503-1.322  c0.226-0.504,0.816-0.73,1.321-0.503l10.928,4.899c0.504,0.226,0.729,0.818,0.503,1.322C40.41,58.389,40.046,58.609,39.663,58.609z" fill="#383128"></path><path d="M61.263,68.291c-0.137,0-0.275-0.028-0.408-0.088l-11.264-5.049c-0.504-0.226-0.729-0.818-0.503-1.322  c0.226-0.504,0.816-0.73,1.321-0.503l11.264,5.049c0.504,0.226,0.729,0.818,0.503,1.322C62.01,68.071,61.646,68.291,61.263,68.291z" fill="#383128"></path><path d="M28.737,68.291c-0.383,0-0.747-0.22-0.913-0.591c-0.227-0.504-0.001-1.096,0.503-1.322l11.264-5.049  c0.505-0.227,1.096,0,1.321,0.503c0.227,0.504,0.001,1.096-0.503,1.322l-11.264,5.049C29.013,68.263,28.874,68.291,28.737,68.291z" fill="#383128"></path><path d="M50.337,58.609c-0.383,0-0.747-0.22-0.913-0.591c-0.227-0.504-0.001-1.096,0.503-1.322l10.928-4.899  c0.505-0.227,1.096,0,1.321,0.503c0.227,0.504,0.001,1.096-0.503,1.322l-10.928,4.899C50.612,58.581,50.474,58.609,50.337,58.609z" fill="#383128"></path><path d="M45,17c-8.284,0-15,6.716-15,15c0,12,15,27,15,27s15-15,15-27C60,23.716,53.284,17,45,17z M45,37  c-2.761,0-5-2.239-5-5s2.239-5,5-5s5,2.239,5,5S47.761,37,45,37z" fill="#E45544"></path><path d="M45,60c-0.256,0-0.512-0.098-0.707-0.293C43.669,59.083,29,44.273,29,32c0-8.822,7.178-16,16-16  s16,7.178,16,16c0,12.273-14.669,27.083-15.293,27.707C45.512,59.902,45.256,60,45,60z M45,18c-7.72,0-14,6.28-14,14  c0,9.984,11.063,22.429,14,25.555C47.937,54.427,59,41.976,59,32C59,24.28,52.72,18,45,18z M45,38c-3.309,0-6-2.691-6-6s2.691-6,6-6  s6,2.691,6,6S48.309,38,45,38z M45,28c-2.206,0-4,1.794-4,4s1.794,4,4,4s4-1.794,4-4S47.206,28,45,28z" fill="#3F291E"></path></svg>