<?xml version="1.0" ?><!DOCTYPE svg  PUBLIC '-//W3C//DTD SVG 1.1//EN'  'http://www.w3.org/Graphics/SVG/1.1/DTD/svg11.dtd'><svg enable-background="new 0 0 90 90" height="90px" id="Layer_1" version="1.1" viewBox="0 0 90 90" width="90px" xml:space="preserve" xmlns="http://www.w3.org/2000/svg" xmlns:xlink="http://www.w3.org/1999/xlink"><circle cx="45" cy="45" fill="#F1C40E" r="45"/><polygon fill="#F0EFD2" points="54,24 36,18 18,24 18,72 36,66 54,72 72,66 72,18 "/><polygon fill="#DDDBBF" points="54,72 54,24 36,18 36,66 "/><polygon clip-rule="evenodd" fill="#82DD47" fill-rule="evenodd" points="26,69.333 36,66 36,31 26,34 "/><polygon clip-rule="evenodd" fill="#82DD47" fill-rule="evenodd" points="46,69.333 54,72 54,57 46,54 "/><polygon clip-rule="evenodd" fill="#82DD47" fill-rule="evenodd" points="54,48 64,44.523 64,33.666 54,37 "/><polygon clip-rule="evenodd" fill="#81D4EF" fill-rule="evenodd" points="64,44.523 72,42 71.997,31 64,33.666 "/><path d="M26,70.337c-0.553,0-1-0.448-1-1V34c0-0.441,0.29-0.831,0.713-0.958l10-3  c0.53-0.159,1.087,0.142,1.245,0.671s-0.142,1.086-0.671,1.245L27,34.744v34.593C27,69.89,26.553,70.337,26,70.337z M46,70.231  c-0.553,0-1-0.448-1-1V54c0-0.328,0.161-0.635,0.431-0.822c0.268-0.187,0.611-0.229,0.921-0.115l7.997,3  c0.517,0.194,0.778,0.771,0.585,1.288c-0.194,0.518-0.771,0.776-1.288,0.585L47,55.443v13.788C47,69.783,46.553,70.231,46,70.231z   M54,38c-0.419,0-0.809-0.265-0.948-0.684c-0.175-0.524,0.108-1.09,0.632-1.265l17.997-6c0.529-0.177,1.09,0.109,1.265,0.632  c0.175,0.524-0.108,1.09-0.632,1.265l-17.997,6C54.211,37.984,54.104,38,54,38z" fill="#222222"/><path d="M54,73c-0.106,0-0.213-0.017-0.316-0.051l-18-6C35.275,66.813,35,66.431,35,66V18  c0-0.321,0.154-0.623,0.415-0.811c0.262-0.189,0.596-0.239,0.901-0.138l18,6C54.725,23.188,55,23.569,55,24v48  c0,0.321-0.154,0.623-0.415,0.811C54.412,72.936,54.207,73,54,73z M37,65.279l16,5.333V24.721l-16-5.333V65.279z" fill="#383128"/><path d="M64,45.667c-0.553,0-1-0.448-1-1v-11c0-0.552,0.447-1,1-1s1,0.448,1,1v11C65,45.219,64.553,45.667,64,45.667  z" fill="#222222"/><path d="M18,73c-0.207,0-0.412-0.064-0.585-0.189C17.154,72.623,17,72.321,17,72V24c0-0.431,0.275-0.813,0.684-0.949  l18-6c0.205-0.068,0.428-0.068,0.633,0L54,22.946l17.684-5.895c0.305-0.101,0.64-0.051,0.901,0.138C72.846,17.377,73,17.679,73,18  v48c0,0.431-0.275,0.813-0.684,0.949l-18,6c-0.205,0.068-0.428,0.068-0.633,0L36,67.054l-17.684,5.895  C18.213,72.983,18.106,73,18,73z M36,65c0.106,0,0.214,0.017,0.316,0.051L54,70.946l17-5.667V19.387l-16.684,5.562  c-0.205,0.068-0.428,0.068-0.633,0L36,19.054l-17,5.667v45.892l16.684-5.562C35.786,65.017,35.894,65,36,65z" fill="#383128"/><path d="M18,49c-0.419,0-0.809-0.265-0.948-0.684c-0.175-0.524,0.108-1.09,0.632-1.265l18-6  c0.205-0.068,0.428-0.068,0.633,0L54,46.946l17.684-5.895c0.528-0.175,1.09,0.109,1.265,0.632c0.175,0.524-0.108,1.09-0.632,1.265  l-18,6c-0.205,0.068-0.428,0.068-0.633,0L36,43.054l-17.684,5.895C18.211,48.984,18.104,49,18,49z" fill="#383128"/></svg>